# xmcd CD database file
#
# Track frame offsets:
#	150
#	27262
#	49792
#	83230
#	124722
#	158062
#	188112
#	220715
#	236247
#	267350
#
# Disc length: 3922 seconds
#
# Revision: 0
# Processed by: cddbd v1.5.1PL0 Copyright (c) Steve Scherf et al.
# Submitted via: CDex 1.51
#
DISCID=840f500a
DTITLE=Gbrielle Roth and The Mirrors - Music For Slow Flow Yoga Vol.1 (YogaFit)
DYEAR=2003
DGENRE=New Age
TTITLE0=Stillpoint
TTITLE1=Oceana
TTITLE2=Cloud Mountain
TTITLE3=Eternal Dance
TTITLE4=Initiation
TTITLE5=Totem
TTITLE6=Black Mesa
TTITLE7=Red Wind
TTITLE8=Stone Circle
TTITLE9=Stillness
EXTD=YEAR: 2003
EXTT0=
EXTT1=
EXTT2=
EXTT3=
EXTT4=
EXTT5=
EXTT6=
EXTT7=
EXTT8=
EXTT9=
PLAYORDER=
